<?xml version="1.0" encoding="UTF-8"?>
<svg id="Ebene_1" data-name="Ebene 1" xmlns="http://www.w3.org/2000/svg" viewBox="0 0 306 72.58">
  <defs>
    <style>
      .cls-1 {
        fill: #191936;
      }

      .cls-2 {
        fill: #131d46;
      }

      .cls-3 {
        fill: #1beb83;
      }
    </style>
  </defs>
  <path class="cls-2" d="M145.22,52.69c-1.64,1.92-4.2,5.17-8.93,5.17-3.98,0-5.17-4.86-5.17-8.05,0-6.87,2.2-12.94,6.38-17.81,4.1-4.77,11.01-4.9,13.49-4.68l-5.78,25.37h0ZM170.08,15.21s-12.1-.4-19.81-.4c-15.7,0-25.29,8.41-29.09,15.05-3.38,5.91-6.2,13.25-6.2,22.27s3.82,20.44,14.11,20.44c8.22,0,13.65-5.82,15.23-7.98v7.3h15.8v-8.03c0-3.31.37-6.6,1.1-9.83l8.84-38.83h0Z"/>
  <path class="cls-2" d="M46.81,18.29c-3.02,1.65-5.73,3.69-7.52,6.06-1.27,1.67-2.47,4.13-2.93,6.97-.31,1.98-.25,3.96.37,5.85.96,2.96,3.28,5.84,7.61,9.35,1.45,1.17,4.88,3.74,5.99,4.9,4.3,4.46.46,8.03-5.81,8.24-6.83.23-12.05-.76-12.05-.76l-2.96,13.01c1.4.2,9.82.98,19.51.53,15.34-.71,23.25-10.08,22.76-19.65-.27-5.29-5.03-10.63-10.06-14.15-.66-.51-1.43-1.06-2.22-1.64-3.1-2.34-4.2-3.26-4.62-4.73-.54-1.85.7-4.16,3.74-4.84,4.48-1.01,10.53-.58,14.63-.06l2.77-12.15s-7.8-.74-13.63-.5c-5.63.23-11.33,1.36-15.58,3.58h0Z"/>
  <path class="cls-2" d="M5.86,46.15L0,71.9h17.8l8.29-36.39c-7.11,2.9-13.88,6.47-20.22,10.64h0Z"/>
  <path class="cls-2" d="M27.94,27.36l2.77-12.16H12.91l-3.68,16.17c6.05-1.82,12.3-3.18,18.71-4.01h0Z"/>
  <path class="cls-2" d="M102.78,27.36h11.72s2.77-12.15,2.77-12.15h-11.72l3.46-15.21-18.32,2.32-11.53,50.64c-1.16,5.1-1.49,10.81,1.78,14.89,2.36,2.95,6.66,4.64,12.42,4.64,4.69,0,11-.59,11-.59l2.96-13.01c-1.17.09-3.23.17-4.58.17-2.21,0-3.94-.08-5-1.22-1.14-1.22-1.26-2.84-.75-5.1l5.79-25.37h0Z"/>
  <polygon class="cls-3" points="188.79 15.21 188.79 71.9 306 71.9 306 15.21 188.79 15.21 188.79 15.21"/>
  <g>
    <path class="cls-1" d="M217.42,57.55h-3.69l-10.07-27.67h3.53l6.6,18.53c.33.96.66,1.97.98,3.03.33,1.07.63,2.05.9,2.95h.04c.25-.9.55-1.88.9-2.93.35-1.05.72-2.12,1.11-3.22l6.6-18.37h3.28l-10.19,27.67Z"/>
    <path class="cls-1" d="M254.16,43.45c0,2.32-.38,4.38-1.13,6.17-.75,1.79-1.82,3.28-3.2,4.47-1.38,1.19-3.01,2.08-4.9,2.69-1.89.6-3.98.9-6.27.9-1.01,0-2.24-.02-3.69-.06-1.45-.04-2.46-.06-3.03-.06v-27.67c.66,0,1.9-.02,3.73-.06,1.83-.04,3.25-.06,4.26-.06,2.27,0,4.28.27,6.05.82,1.76.55,3.25,1.38,4.47,2.5,1.22,1.12,2.14,2.55,2.77,4.28.63,1.74.94,3.77.94,6.09ZM250.88,43.67c0-7.58-3.76-11.38-11.27-11.38-.66,0-1.24,0-1.74.02-.51.01-1.43.05-2.77.1v22.43c.55.08,1.2.15,1.95.21.75.05,1.43.08,2.03.08,1.78,0,3.38-.23,4.82-.7,1.44-.46,2.68-1.17,3.73-2.12,1.05-.94,1.86-2.14,2.42-3.57.56-1.44.84-3.13.84-5.07Z"/>
    <path class="cls-1" d="M287.37,57.55l-2.36-17.18c-.22-1.69-.4-3.18-.55-4.45s-.24-2.33-.26-3.18h-.08c-.16.66-.38,1.42-.64,2.3-.26.88-.57,1.83-.92,2.87l-6.93,19.64h-2.87l-6.52-18.57c-.98-2.84-1.64-4.92-1.97-6.23h-.04c-.05,1.07-.14,2.23-.26,3.51-.12,1.27-.26,2.71-.43,4.33l-1.95,16.97h-3.16l3.64-27.67h4.3l6.64,18.74c.27.79.53,1.59.76,2.38.23.79.43,1.56.59,2.3h.04c.16-.85.36-1.67.59-2.46.23-.79.47-1.53.72-2.21l6.6-18.74h4.52l3.83,27.67h-3.28Z"/>
  </g>
</svg>